<svg width="21" height="21" xmlns="http://www.w3.org/2000/svg">

 <g>
  <title>background</title>
  <rect fill="none" id="canvas_background" height="24" width="14" y="-1" x="-1"/>
 </g>
 <g>
  <title>Layer 1</title>
  <path fill-opacity="0.3" id="svg_1" d="m18,0l-15,0c-1.65,0 -3,1.35 -3,3l0,15c0,1.65 1.35,3 3,3l15,0c1.65,0 3,-1.35 3,-3l0,-15c0,-1.65 -1.35,-3 -3,-3zm-7.5,7c1.93,0 3.5,1.57 3.5,3.5s-1.57,3.5 -3.5,3.5s-3.5,-1.57 -3.5,-3.5s1.57,-3.5 3.5,-3.5zm7.5,11l-15,0l0,-9l1.181,0a6.504,6.504 0 0 0 -0.181,1.5a6.5,6.5 0 1 0 13,0a6.45,6.45 0 0 0 -0.181,-1.5l1.181,0l0,9zm-7.5,-22l-4,0l0,7l4,0l0,4l0,-11z" fill="#ffffff"/>
 </g>
</svg>