<svg width="26" height="15" xmlns="http://www.w3.org/2000/svg">

 <g>
  <title>background</title>
  <rect fill="none" id="canvas_background" height="24" width="14" y="-1" x="-1"/>
 </g>
 <g>
  <title>Layer 1</title>
  <path fill-opacity="0.3" id="svg_1" d="m16.138,11.51c0.955999,-0.309 2.18,2.04 3.483,2.939c0.978001,0.681 1.726999,0.533999 1.726999,0.533999l3.473,-0.05s1.815001,-0.112 0.957001,-1.554c-0.070999,-0.12 -0.503,-1.068999 -2.584999,-3.021999c-2.177,-2.043 -1.882,-1.712 0.738998,-5.244c1.597,-2.153 2.236,-3.468 2.036001,-4.028c-0.192001,-0.539 -1.365,-0.399 -1.365,-0.399l-3.913,0.027c-0.381001,0.001 -0.704,0.119 -0.851,0.515c-0.003,0.004 -0.621,1.666 -1.445002,3.079c-1.740999,2.989 -2.435999,3.148 -2.723999,2.961c-0.661,-0.433 -0.494,-1.737 -0.494,-2.664c0,-2.897 0.432,-4.105 -0.846,-4.417c-0.427,-0.104 -0.739,-0.172 -1.828,-0.182c-1.392,-0.021 -2.573999,0 -3.243999,0.329c-0.445001,0.223 -0.786,0.712 -0.579,0.74c0.26,0.035 0.843,0.16 1.155,0.586c0.401,0.552 0.389,1.789 0.389,1.789s0.229,3.411 -0.54,3.834c-0.528,0.29 -1.25,-0.302 -2.802999,-3.016c-0.793,-1.388 -1.392,-2.922 -1.392,-2.922s-0.116,-0.285 -0.326,-0.441c-0.25,-0.185 -0.6,-0.244 -0.6,-0.244l-3.714,0.024s-0.558,0.016 -0.763,0.262c-0.182,0.218 -0.015,0.668 -0.015,0.668s2.909,6.881 6.203,10.347c3.02,3.181999 6.452001,2.971 6.452001,2.971l1.554999,0s0.469,-0.054 0.709001,-0.312c0.224,-0.24 0.214,-0.691 0.214,-0.691s-0.031,-2.109 0.935,-2.419z" fill="#ffffff"/>
 </g>
</svg>